<svg xmlns="http://www.w3.org/2000/svg" xmlns:xlink="http://www.w3.org/1999/xlink" xmlns:inkscape="http://www.inkscape.org/namespaces/inkscape" version="1.1" width="177.022" height="168.878" viewBox="0 0 177.022 168.878">
<defs>
<path id="font_1_1" d="M.47399903 .21887207 .548996 0H.6529999L.39698792 .7285156H.2769928L.016998291 0H.115997318L.19299317 .21887207H.47399903M.44799806 .296875H.21598816L.33599855 .62857058 .44799806 .296875Z"/>
<path id="font_1_2" d="M.08898926 0H.36999513C.55400088 0 .6669922 .13793946 .6669922 .3647461 .6669922 .5905609 .5549927 .7285156 .36999513 .7285156H.08898926V0M.18199158 .08198547V.6465149H.35398866C.49798585 .6465149 .57398989 .54959109 .57398989 .36375428 .57398989 .17990113 .49798585 .08198547 .35398866 .08198547H.18199158Z"/>
<path id="font_1_7" d="M.1499939 .5235901H.066986087V0H.1499939V.5235901M.1499939 .7285156H.06599426V.62350466H.1499939V.7285156Z"/>
<path id="font_1_3" d="M.5349884 .048553468C.526001 .046554567 .5219879 .046554567 .5169983 .046554567 .48799134 .046554567 .47200013 .061569215 .47200013 .08760071V.39598084C.47200013 .48905946 .4039917 .5390625 .2749939 .5390625 .19898987 .5390625 .13598633 .5170593 .100997928 .47805787 .07699585 .45103456 .066986087 .42100526 .06498718 .36894227H.14898682C.1559906 .43301393 .19400025 .4620514 .27198792 .4620514 .34700013 .4620514 .3889923 .434021 .3889923 .3839569V.36193849C.3889923 .32688905 .36799623 .3118744 .3019867 .30386354 .18399048 .28884889 .1659851 .28483583 .13398743 .27182008 .07299805 .24679566 .041992189 .19973755 .041992189 .13165283 .041992189 .03656006 .10798645-.0234375 .21398926-.0234375 .27999879-.0234375 .33299256-.00044250489 .3919983 .05355835 .397995 .0005493164 .42399598-.0234375 .47799684-.0234375 .49499513-.0234375 .5079956-.021438599 .5349884-.014450073V.048553468M.3889923 .16468811C.3889923 .13665772 .3809967 .119644168 .35598756 .09661865 .32199098 .06556702 .2809906 .049560548 .23199463 .049560548 .16699219 .049560548 .1289978 .080596927 .1289978 .13365174 .1289978 .1887207 .1659851 .2167511 .25498963 .22976685 .34298707 .24179077 .36099244 .24578858 .3889923 .25880433V.16468811Z"/>
<path id="font_1_5" d="M.4119873 .52404788V.44804383C.36999513 .51005557 .31900025 .5390625 .2519989 .5390625 .11898804 .5390625 .0289917 .42300416 .0289917 .25279237 .0289917 .16668701 .051986696 .09660339 .09498596 .046554567 .13398743 .0025482178 .18998719-.0234375 .24499512-.0234375 .31098939-.0234375 .35699464 .004562378 .4039917 .0705719V.043548585C.4039917-.027450562 .394989-.07044983 .37399293-.09944153 .35198976-.13044739 .30899049-.1484375 .2579956-.1484375 .21998596-.1484375 .18598938-.138443 .16299439-.12043762 .14399719-.10543823 .13598633-.09144592 .1309967-.060440065H.04598999C.054992677-.15943909 .13198853-.21844483 .25498963-.21844483 .33299256-.21844483 .3999939-.19345093 .43399049-.15144348 .47399903-.10343933 .4889984-.03744507 .4889984 .08560181V.52404788H.4119873M.26098634 .4620514C.35099793 .4620514 .4039917 .3859558 .4039917 .25480653 .4039917 .12965393 .34999085 .05355835 .2619934 .05355835 .17098999 .05355835 .115997318 .13064575 .115997318 .25779725 .115997318 .3839569 .17199707 .4620514 .26098634 .4620514Z"/>
<path id="font_1_10" d="M.069992069 .52441409V0H.1539917V.2892151C.1539917 .39604188 .20999146 .4660492 .29599 .4660492 .3619995 .4660492 .4039917 .42604066 .4039917 .3630371V0H.4869995V.39604188C.4869995 .4830475 .42199708 .5390625 .32099916 .5390625 .24299622 .5390625 .19299317 .50904849 .14698792 .43605042V.52441409H.069992069Z"/>
<path id="font_1_11" d="M.27198792 .5390625C.125 .5390625 .035995485 .434021 .035995485 .25779725 .035995485 .081588748 .12399292-.0234375 .272995-.0234375 .41999818-.0234375 .5099945 .081588748 .5099945 .25379945 .5099945 .43502809 .4229889 .5390625 .27198792 .5390625M.272995 .4620514C.36698915 .4620514 .4229889 .384964 .4229889 .25480653 .4229889 .13165283 .36499024 .05355835 .272995 .05355835 .17999268 .05355835 .12298584 .13064575 .12298584 .25779725 .12298584 .3839569 .17999268 .4620514 .272995 .4620514Z"/>
<path id="font_1_14" d="M.43798829 .37794496C.43699647 .48104859 .36898805 .5390625 .24798584 .5390625 .12599182 .5390625 .04699707 .47605897 .04699707 .37895204 .04699707 .29685975 .08898926 .25779725 .21299744 .22776795L.29100038 .20874024C.34899903 .19473267 .37199403 .17370606 .37199403 .13565064 .37199403 .08659363 .32299806 .05355835 .25 .05355835 .20498657 .05355835 .16699219 .0665741 .1459961 .08859253 .1329956 .10362244 .1269989 .118637088 .12199402 .15568543H.033996583C.037994386 .034561159 .10598755-.0234375 .24299622-.0234375 .375-.0234375 .45899964 .041549684 .45899964 .14266968 .45899964 .22076416 .4149933 .2638092 .31098939 .28884889L.23098755 .30786134C.16299439 .32388307 .13398743 .34591676 .13398743 .3829651 .13398743 .431015 .1769867 .4620514 .24499512 .4620514 .31199647 .4620514 .34799195 .43301393 .34999085 .37794496H.43798829Z"/>
<path id="font_1_4" d="M.5130005 .23374939C.5130005 .31376649 .5069885 .36186219 .49198915 .40093995 .45799256 .48706056 .37799073 .5390625 .27999879 .5390625 .13398743 .5390625 .039993287 .4269867 .039993287 .25474549 .039993287 .08258057 .1309967-.0234375 .27799989-.0234375 .397995-.0234375 .48098756 .044555665 .5019989 .15867615H.41799928C.394989 .08959961 .34799195 .05355835 .2809906 .05355835 .22799683 .05355835 .18299866 .07757568 .15499878 .12162781 .1349945 .1516571 .12799073 .18170166 .1269989 .23374939H.5130005M.1289978 .3017578C.13598633 .39894105 .19499207 .4620514 .2789917 .4620514 .36099244 .4620514 .42399598 .3939209 .42399598 .30775453 .42399598 .30575563 .42399598 .3037567 .4229889 .3017578H.1289978Z"/>
<path id="font_1_16" d="M.55400088 0 .70799258 .52441409H.6139984L.5099945 .11607361 .40699769 .52441409H.30499269L.20498657 .11607361 .09799194 .52441409H.005996704L.1579895 0H.2519989L.35299684 .41133119 .45899964 0H.55400088Z"/>
<path id="font_1_15" d="M.2539978 .52441409H.16799927V.66841128H.084991458V.52441409H.01399231V.45640565H.084991458V.059570314C.084991458 .0065612795 .12098694-.0234375 .18598938-.0234375 .20599365-.0234375 .22599793-.021438599 .2539978-.016448975V.05355835C.24299622 .05055237 .22999573 .049560548 .21398926 .049560548 .17799378 .049560548 .16799927 .059570314 .16799927 .09664917V.45640565H.2539978V.52441409Z"/>
<path id="font_1_6" d="M.069992069 .7285156V0H.15299988V.28903199C.15299988 .39604188 .20899964 .4660492 .29499818 .4660492 .32199098 .4660492 .34899903 .4570465 .36898805 .44204713 .3929901 .42504884 .40299989 .40003968 .40299989 .3630371V0H.48599244V.39604188C.48599244 .48405458 .4229889 .5390625 .32099916 .5390625 .24699402 .5390625 .20199585 .51605227 .15299988 .45205689V.7285156H.069992069Z"/>
<path id="font_1_9" d="M.069992069 .52441409V0H.1539917V.32925416C.1539917 .40504457 .20899964 .4660492 .2769928 .4660492 .33898927 .4660492 .37399293 .4280548 .37399293 .3610382V0H.45799256V.32904054C.45799256 .40504457 .5130005 .4660492 .58099368 .4660492 .6419983 .4660492 .6779938 .42704774 .6779938 .3610382V0H.7619934V.3930359C.7619934 .48706056 .70799258 .5390625 .6100006 .5390625 .5399933 .5390625 .49798585 .51805117 .44898988 .4590454 .41799928 .5150604 .37599183 .5390625 .30799867 .5390625 .23799134 .5390625 .19198609 .5130615 .14698792 .45005799V.52441409H.069992069Z"/>
<path id="font_1_8" d="M.1519928 .7285156H.067993167V0H.1519928V.7285156Z"/>
<path id="font_1_13" d="M.068984989 .52441409V0H.15299988V.27220155C.15299988 .34727479 .17199707 .39631654 .21199036 .42533876 .23799134 .4443512 .2630005 .45036317 .32099916 .45135499V.5364075C.30699159 .5380554 .2999878 .5390625 .2889862 .5390625 .23498535 .5390625 .19400025 .50704959 .1459961 .42904664V.52441409H.068984989Z"/>
<path id="font_1_12" d="M.053985597-.21824646H.13798523V.05455017C.18199158 .0005493164 .23098755-.0234375 .29899598-.0234375 .43399049-.0234375 .522995 .08558655 .522995 .25279237 .522995 .4290161 .43699647 .5390625 .2979889 .5390625 .22698975 .5390625 .16999817 .50704959 .1309967 .44503785V.52404788H.053985597V-.21824646M.28399659 .46105958C.37599183 .46105958 .43598939 .3799591 .43598939 .25480653 .43598939 .13565064 .375 .05455017 .28399659 .05455017 .19599915 .05455017 .13798523 .13465882 .13798523 .25779725 .13798523 .38095094 .19599915 .46105958 .28399659 .46105958Z"/>
<path id="font_1_17" d="M.44299317 .52441409H.051986696V.45140077H.34399415L.0309906 .07499695V0H.45700074V.07299805H.13198853L.44299317 .45040895V.52441409Z"/>
<clipPath id="clip_2">
<path transform="matrix(.35756,0,0,-.35756,20.687,165.54302)" d="M0 0H427.90766V394.6409H0Z"/>
</clipPath>
<clipPath id="clip_3">
<path transform="matrix(.35756,0,0,-.35756,20.687,165.54302)" d="M31.069794 7.2H363.7098V339.84004H31.069794Z"/>
</clipPath>
<g id="font_4_83">
<path transform="matrix(.001,0,0,.001,0,0)" d="M45 230 134 238C138 202 148 172 164 149 179 126 203 108 236 94 268 80 305 73 346 73 382 73 413 78 441 89 469 99 489 114 503 133 516 151 523 172 523 194 523 216 516 236 503 253 490 269 469 283 439 295 420 303 378 314 312 330 246 346 200 361 174 375 140 393 114 415 97 441 80 467 72 497 72 531 72 567 82 600 103 632 123 663 153 687 193 703 232 719 276 728 324 728 377 728 424 719 464 702 504 685 536 660 558 627 580 593 591 556 593 514L502 507C497 552 481 586 453 610 425 633 383 645 328 645 270 645 229 634 203 613 177 592 164 567 164 537 164 511 173 490 191 474 209 457 257 440 334 422 411 404 464 389 493 377 534 357 565 333 585 304 605 274 615 240 615 202 615 164 604 128 582 94 560 60 528 34 488 16 447-2 401-11 350-11 285-11 231-2 187 16 143 34 109 63 84 101 59 139 46 182 45 230Z"/>
</g>
<g id="font_4_85">
<path transform="matrix(.001,0,0,.001,0,0)" d="M547 716H642V302C642 230 633 172 617 130 601 88 571 54 529 28 486 2 430-11 362-11 294-11 239 0 197 23 154 45 124 78 106 122 88 166 79 226 79 302V716H173V303C173 240 178 194 190 165 202 135 222 113 250 97 278 81 312 73 354 73 423 73 472 88 502 120 532 152 547 213 547 303V716Z"/>
</g>
<g id="font_4_68">
<path transform="matrix(.001,0,0,.001,0,0)" d="M77 0V716H324C379 716 421 712 451 706 492 696 527 678 556 654 594 622 622 581 641 532 659 482 669 426 669 362 669 307 662 259 650 217 637 175 621 140 601 113 581 85 559 64 535 48 511 32 483 20 450 12 416 4 378 0 335 0H77ZM172 84H325C372 84 409 88 436 97 462 106 484 119 500 135 522 157 540 187 552 225 564 263 571 309 571 363 571 438 558 496 534 536 510 576 480 603 445 617 419 626 378 631 322 631H172V84Z"/>
</g>
<g id="font_4_49">
<path transform="matrix(.001,0,0,.001,0,0)" d="M373 0H285V560C263 540 235 519 201 499 167 479 136 464 109 454V539C158 562 201 590 238 623 274 655 300 687 316 719H373V0Z"/>
</g>
<g id="font_4_50">
<path transform="matrix(.001,0,0,.001,0,0)" d="M503 84V0H30C29 21 33 41 41 61 53 93 72 124 98 156 124 187 163 223 213 265 291 328 343 378 371 416 398 453 412 488 412 522 412 556 399 586 374 610 349 634 317 646 277 646 235 646 201 633 176 608 150 582 137 547 137 502L47 512C53 579 76 630 116 666 156 701 211 719 279 719 347 719 402 699 442 661 482 623 502 576 502 520 502 491 496 463 484 435 472 407 453 378 426 348 399 317 354 275 291 222 238 178 204 148 189 132 174 116 162 100 152 84H503Z"/>
</g>
<g id="font_4_53">
<path transform="matrix(.001,0,0,.001,0,0)" d="M42 188 134 195C140 150 156 116 181 94 206 71 236 60 271 60 313 60 349 76 379 108 408 140 423 182 423 235 423 285 408 324 380 353 352 382 315 397 270 397 242 397 216 390 193 377 170 364 152 348 140 328L57 338 126 706H482V622H197L158 430C201 460 246 475 293 475 355 475 408 453 451 410 494 366 516 311 516 243 516 178 497 122 459 75 413 17 351-11 271-11 206-11 153 7 112 43 70 79 47 127 42 188Z"/>
</g>
<g id="font_4_72">
<path transform="matrix(.001,0,0,.001,0,0)" d="M80 0V716H175V422H547V716H642V0H547V337H175V0H80Z"/>
</g>
<g id="font_4_67">
<path transform="matrix(.001,0,0,.001,0,0)" d="M588 251 683 227C663 149 627 89 575 49 523 9 460-11 386-11 309-11 246 4 198 35 149 66 112 111 87 171 62 231 50 295 50 363 50 437 64 502 92 558 120 614 161 656 214 685 266 713 324 728 388 728 459 728 519 709 568 673 617 637 651 586 670 520L577 498C560 550 536 587 505 611 473 635 434 647 386 647 330 647 284 633 247 607 210 581 184 545 169 501 154 457 147 411 147 364 147 302 156 249 174 204 192 158 219 124 257 102 294 80 334 69 378 69 431 69 476 84 513 115 549 145 574 191 588 251Z"/>
</g>
<g id="font_4_32">
</g>
<g id="font_4_105">
<path transform="matrix(.001,0,0,.001,0,0)" d="M66 615V716H154V615H66ZM66 0V519H154V0H66Z"/>
</g>
<g id="font_4_98">
<path transform="matrix(.001,0,0,.001,0,0)" d="M147 0H65V716H153V460C190 506 237 530 295 530 327 530 357 523 386 511 414 498 438 480 456 457 474 433 489 405 499 372 509 339 515 304 515 267 515 178 493 109 449 61 405 13 352-11 291-11 229-11 181 14 147 65V0ZM146 263C146 201 154 156 171 128 199 83 236 61 284 61 322 61 355 77 383 111 411 144 425 194 425 260 425 327 411 377 385 409 358 441 326 458 288 458 249 458 216 441 188 408 160 374 146 326 146 263Z"/>
</g>
<g id="font_4_108">
<path transform="matrix(.001,0,0,.001,0,0)" d="M64 0V716H152V0H64Z"/>
</g>
<g id="font_4_110">
<path transform="matrix(.001,0,0,.001,0,0)" d="M66 0V519H145V445C183 501 238 530 310 530 341 530 370 524 396 513 422 502 442 487 455 469 468 451 477 429 482 404 485 388 487 359 487 319V0H399V315C399 351 395 377 389 395 382 413 370 427 353 438 335 448 315 454 292 454 254 454 221 442 194 418 167 394 154 349 154 283V0H66Z"/>
</g>
<g id="font_4_103">
<path transform="matrix(.001,0,0,.001,0,0)" d="M50-42 135-55C139-81 149-100 165-112 187-128 216-137 254-137 294-137 326-128 348-112 370-96 386-73 394-44 398-26 400 11 400 68 361 22 313 0 256 0 184 0 129 25 90 77 51 128 32 190 32 262 32 311 41 357 59 399 77 441 103 473 137 496 171 518 211 530 257 530 318 530 368 505 408 456V519H489V70C489-10 480-66 464-100 448-134 422-160 386-180 350-199 307-209 255-209 193-209 143-195 105-167 67-139 48-98 50-42ZM123 269C123 201 136 151 163 120 190 88 224 73 265 73 305 73 338 88 366 119 393 150 407 199 407 266 407 329 393 377 365 409 337 441 303 458 263 458 224 458 191 442 164 410 136 378 123 331 123 269Z"/>
</g>
<g id="font_4_56">
<path transform="matrix(.001,0,0,.001,0,0)" d="M177 388C140 401 113 420 95 445 77 469 69 499 69 534 69 586 87 629 125 665 163 701 213 719 275 719 337 719 388 700 426 664 464 628 483 584 483 532 483 498 474 469 457 445 439 420 413 401 377 388 421 374 454 351 477 319 500 287 512 249 512 205 512 143 490 92 447 51 403 9 346-11 276-11 205-11 148 9 105 51 62 92 41 144 41 207 41 253 52 292 76 324 99 355 133 376 177 388ZM159 537C159 503 170 475 192 454 214 432 242 422 277 422 311 422 338 432 360 454 382 475 393 501 393 532 393 564 381 591 359 613 337 635 309 646 276 646 242 646 214 635 192 614 170 592 159 567 159 537ZM131 207C131 181 137 157 149 134 161 110 178 92 202 79 225 66 250 60 277 60 319 60 353 73 381 100 408 127 422 162 422 204 422 246 408 280 380 308 352 336 316 350 274 350 232 350 198 336 171 309 144 281 131 247 131 207Z"/>
</g>
<g id="font_4_55">
<path transform="matrix(.001,0,0,.001,0,0)" d="M47 622V707H511V638C465 589 419 524 375 444 330 364 295 281 271 197 253 137 242 71 238 0H147C148 56 159 124 180 204 201 284 231 361 271 435 311 509 353 571 398 622H47Z"/>
</g>
<g id="font_4_82">
<path transform="matrix(.001,0,0,.001,0,0)" d="M79 0V716H396C460 716 508 709 541 696 574 683 601 660 621 628 641 596 651 560 651 521 651 469 634 426 601 392 568 357 517 335 449 326 474 314 493 302 506 290 534 264 560 233 585 195L709 0H590L496 149C468 191 445 224 427 247 409 270 393 286 379 295 365 304 350 310 336 314 325 316 307 318 283 318H173V0H79ZM173 400H377C420 400 454 404 478 413 502 422 521 436 534 456 546 476 553 497 553 521 553 554 540 582 516 604 491 626 452 637 400 637H173V400Z"/>
</g>
<g id="font_4_90">
<path transform="matrix(.001,0,0,.001,0,0)" d="M20 0V88L387 546C413 578 437 607 461 631H62V716H574V631L172 135 129 84H586V0H20Z"/>
</g>
<g id="font_4_57">
<path transform="matrix(.001,0,0,.001,0,0)" d="M55 166 139 173C146 133 160 105 180 87 200 69 226 60 258 60 284 60 308 66 328 78 348 90 365 107 378 128 391 148 402 176 411 212 420 247 425 283 425 319 425 323 424 329 424 337 406 309 382 286 352 269 322 251 289 243 253 243 194 243 144 264 103 307 62 350 42 407 42 477 42 549 63 608 106 652 148 696 202 719 267 719 313 719 355 706 394 681 432 656 462 620 482 574 502 527 512 460 512 373 512 281 502 208 482 154 462 100 433 59 394 31 354 3 308-11 256-11 200-11 154 4 118 35 82 65 61 109 55 166ZM415 481C415 531 401 571 374 601 347 631 315 646 277 646 238 646 204 630 175 598 146 566 132 524 132 474 132 428 145 391 173 363 200 334 234 320 275 320 315 320 349 334 375 363 401 391 415 431 415 481Z"/>
</g>
<g id="font_4_80">
<path transform="matrix(.001,0,0,.001,0,0)" d="M77 0V716H347C394 716 430 713 456 709 491 703 520 691 544 675 568 659 587 636 602 606 616 576 624 544 624 509 624 447 604 396 565 354 526 312 456 291 355 291H172V0H77ZM172 375H357C418 375 461 386 487 409 513 432 526 464 526 506 526 536 518 561 503 583 487 604 467 618 443 625 427 629 397 631 355 631H172V375Z"/>
</g>
<g id="font_4_54">
<path transform="matrix(.001,0,0,.001,0,0)" d="M498 541 410 534C402 568 391 593 377 609 353 633 323 646 289 646 261 646 236 638 215 623 187 603 166 573 150 535 134 496 125 441 125 369 146 401 172 424 203 440 233 456 265 464 299 464 357 464 407 442 448 399 489 356 510 300 510 232 510 187 500 145 481 107 461 68 435 39 401 19 367-1 329-11 286-11 212-11 153 15 107 69 61 122 38 211 38 335 38 473 63 573 114 637 158 691 218 719 294 719 350 719 397 703 433 671 469 639 490 596 498 541ZM139 232C139 202 145 173 158 145 170 117 188 96 212 82 235 67 259 60 285 60 321 60 353 75 380 105 406 135 420 175 420 227 420 276 406 315 380 344 354 372 321 387 281 387 241 387 208 372 180 344 152 315 139 278 139 232Z"/>
</g>
<g id="font_4_65">
<path transform="matrix(.001,0,0,.001,0,0)" d="M0 0 273 716H375L668 0H561L477 217H178L99 0H0ZM205 294H448L373 492C350 552 333 602 322 641 313 595 300 549 284 504L205 294Z"/>
</g>
<g id="font_4_78">
<path transform="matrix(.001,0,0,.001,0,0)" d="M76 0V716H173L549 154V716H640V0H543L167 563V0H76Z"/>
</g>
<g id="font_4_87">
<path transform="matrix(.001,0,0,.001,0,0)" d="M202 0 12 716H109L218 247C230 197 240 148 249 100 267 176 277 220 281 232L417 716H531L634 354C659 264 677 179 689 100 698 145 710 197 725 256L837 716H933L736 0H645L494 545C481 591 474 619 472 629 464 596 457 568 451 545L299 0H202Z"/>
</g>
<g id="font_4_77">
<path transform="matrix(.001,0,0,.001,0,0)" d="M74 0V716H217L386 209C402 161 413 126 420 103 428 129 441 167 458 218L630 716H757V0H666V599L458 0H373L166 609V0H74Z"/>
</g>
<g id="font_4_84">
<path transform="matrix(.001,0,0,.001,0,0)" d="M259 0V631H23V716H591V631H354V0H259Z"/>
</g>
<g id="font_4_52">
<path transform="matrix(.001,0,0,.001,0,0)" d="M323 0V171H13V252L339 716H411V252H508V171H411V0H323ZM323 252V575L99 252H323Z"/>
</g>
<g id="font_4_97">
<path transform="matrix(.001,0,0,.001,0,0)" d="M404 64C371 36 340 16 310 5 280-5 247-11 213-11 156-11 112 2 82 30 51 58 36 93 36 137 36 162 41 185 53 206 65 227 80 244 99 257 117 269 138 279 162 286 179 290 205 294 240 299 311 307 363 317 397 329 397 341 397 348 397 352 397 388 389 413 373 428 350 448 316 458 272 458 230 458 200 450 180 436 160 421 146 395 137 359L51 371C59 407 72 437 90 460 108 482 133 500 167 512 201 524 240 530 285 530 329 530 365 524 393 514 421 504 441 491 454 475 467 459 476 440 481 416 484 400 486 373 486 334V217C486 135 487 84 491 62 495 40 502 20 514 0H422C412 18 406 39 404 64ZM397 260C365 247 317 236 253 227 217 221 191 215 176 209 161 203 150 193 142 181 134 168 130 154 130 139 130 115 138 96 156 80 174 64 200 57 234 57 268 57 298 64 324 79 350 94 370 114 383 140 392 160 397 189 397 228V260Z"/>
</g>
<g id="font_4_99">
<path transform="matrix(.001,0,0,.001,0,0)" d="M404 190 491 179C481 119 457 72 418 39 379 5 331-11 275-11 203-11 146 12 103 58 60 104 39 170 39 257 39 313 48 362 67 404 85 446 113 477 151 498 189 519 230 530 275 530 331 530 377 515 413 487 449 459 472 418 482 366L397 353C389 387 374 413 354 431 333 449 308 458 279 458 234 458 198 442 170 410 142 378 129 328 129 260 129 190 142 139 169 108 195 76 230 61 274 61 308 61 337 71 360 92 383 113 398 146 404 190Z"/>
</g>
<g id="font_4_69">
<path transform="matrix(.001,0,0,.001,0,0)" d="M79 0V716H597V631H174V412H570V328H174V84H613V0H79Z"/>
</g>
<g id="font_4_112">
<path transform="matrix(.001,0,0,.001,0,0)" d="M66-198V519H146V451C164 477 186 497 210 510 234 523 262 530 296 530 340 530 379 518 413 496 447 473 472 441 490 399 507 357 516 312 516 263 516 210 506 162 487 120 468 77 440 44 404 22 368 0 330-11 290-11 260-11 234-5 211 7 187 19 168 34 154 54V-198H66ZM146 256C146 189 159 140 186 108 213 76 246 61 284 61 323 61 356 77 384 110 412 143 426 194 426 264 426 330 412 379 385 412 358 444 326 461 288 461 250 461 217 443 189 408 160 373 146 322 146 256Z"/>
</g>
<g id="font_4_115">
<path transform="matrix(.001,0,0,.001,0,0)" d="M31 155 118 168C122 133 136 106 158 88 180 70 212 61 252 61 292 61 322 69 342 85 361 101 371 121 371 143 371 163 362 178 345 190 333 198 303 208 255 220 191 236 146 250 121 262 96 274 77 290 64 311 51 332 45 355 45 381 45 404 50 425 61 445 71 465 86 481 104 494 118 504 136 512 160 519 184 526 209 530 236 530 276 530 312 524 343 512 374 500 397 485 412 465 426 445 436 418 442 385L356 373C352 399 340 420 322 435 303 450 277 458 243 458 202 458 173 451 156 438 138 424 130 409 130 391 130 379 133 369 141 360 148 350 159 343 175 337 183 333 209 326 252 314 314 298 358 284 382 274 406 263 426 247 440 227 454 207 461 182 461 152 461 122 452 95 435 69 418 43 393 24 361 10 329-4 292-11 252-11 184-11 133 2 98 30 62 58 40 99 31 155Z"/>
</g>
<g id="font_4_111">
<path transform="matrix(.001,0,0,.001,0,0)" d="M33 259C33 355 59 426 113 473 157 511 212 530 276 530 347 530 405 506 451 460 496 413 519 349 519 267 519 200 509 147 489 109 469 71 439 41 401 20 363 0 321-11 276-11 203-11 144 12 100 58 55 104 33 171 33 259ZM124 259C124 193 138 143 167 110 195 77 232 61 276 61 320 61 356 77 385 110 414 143 429 194 429 262 429 326 414 374 385 408 355 441 319 458 276 458 232 458 195 441 167 408 138 375 124 325 124 259Z"/>
</g>
<g id="font_4_100">
<path transform="matrix(.001,0,0,.001,0,0)" d="M402 0V65C369 14 321-11 257-11 215-11 177 0 143 23 108 45 81 77 62 118 43 158 34 205 34 259 34 310 42 357 60 399 77 441 103 474 137 496 171 518 210 530 253 530 284 530 312 523 337 510 361 497 381 480 396 459V716H484V0H402ZM125 259C125 192 138 142 166 110 194 77 227 61 265 61 303 61 336 76 363 108 390 139 404 187 404 251 404 322 390 374 363 408 335 441 302 458 262 458 222 458 190 442 164 410 138 378 125 327 125 259Z"/>
</g>
<g id="font_4_101">
<path transform="matrix(.001,0,0,.001,0,0)" d="M421 167 512 156C497 102 470 61 432 32 393 3 344-11 284-11 208-11 147 12 103 58 59 104 37 170 37 255 37 342 59 410 104 458 148 506 207 530 279 530 348 530 405 506 449 459 493 412 515 346 515 260 515 254 514 247 514 237H127C130 179 146 136 175 106 204 76 240 61 284 61 316 61 344 69 367 86 389 102 407 129 421 167ZM132 309H422C418 353 407 385 389 407 361 441 324 458 280 458 239 458 205 444 178 417 150 390 135 354 132 309Z"/>
</g>
<g id="font_4_66">
<path transform="matrix(.001,0,0,.001,0,0)" d="M73 0V716H342C396 716 440 708 473 694 506 679 532 657 551 627 569 597 579 565 579 533 579 502 570 473 554 446 537 419 512 397 479 381 522 368 555 346 579 316 602 285 614 249 614 208 614 174 606 142 592 114 578 85 560 63 540 47 519 31 493 20 462 12 430 4 392 0 346 0H73ZM168 415H323C365 415 395 417 413 423 437 430 455 442 467 459 479 475 486 496 486 521 486 545 480 566 469 584 457 602 441 614 420 621 398 627 362 631 311 631H168V415ZM168 84H346C376 84 398 85 411 88 432 92 450 98 465 107 479 116 491 129 501 147 511 164 516 184 516 208 516 234 509 257 495 277 481 297 462 311 438 319 414 327 379 331 333 331H168V84Z"/>
</g>
<g id="font_4_70">
<path transform="matrix(.001,0,0,.001,0,0)" d="M82 0V716H565V631H177V410H513V325H177V0H82Z"/>
</g>
<g id="font_4_51">
<path transform="matrix(.001,0,0,.001,0,0)" d="M42 189 130 201C140 151 157 115 181 93 205 71 235 60 270 60 311 60 346 74 374 103 402 131 417 167 417 209 417 249 403 283 377 309 351 335 317 349 277 349 260 349 239 345 215 339L225 416C231 415 235 415 239 415 276 415 310 424 340 444 370 464 385 494 385 535 385 567 374 593 352 614 330 635 302 646 268 646 234 646 205 635 182 614 159 592 145 560 139 518L51 533C61 592 86 638 124 670 162 702 209 719 266 719 305 719 341 710 374 693 406 676 431 653 449 625 467 596 476 565 476 533 476 501 467 473 451 448 434 422 409 402 377 388 419 378 451 357 475 327 499 296 511 257 511 211 511 149 488 96 442 53 396 9 339-12 270-12 206-12 154 6 113 44 71 81 48 129 42 189Z"/>
</g>
<g id="font_4_79">
<path transform="matrix(.001,0,0,.001,0,0)" d="M48 349C48 467 80 560 144 628 208 695 290 729 391 729 457 729 516 713 569 681 622 649 663 605 691 549 719 492 733 428 733 357 733 284 718 219 689 162 659 104 618 61 564 32 510 3 453-11 391-11 323-11 263 5 210 37 156 69 116 113 89 169 61 225 48 285 48 349ZM146 347C146 261 169 193 215 143 261 93 320 69 390 69 461 69 520 94 566 144 612 194 635 265 635 357 635 415 625 466 605 510 585 553 557 587 519 611 481 635 438 647 392 647 324 647 266 624 218 578 170 532 146 455 146 347Z"/>
</g>
<g id="font_4_114">
<path transform="matrix(.001,0,0,.001,0,0)" d="M65 0V519H144V440C164 476 182 500 200 512 217 524 236 530 256 530 286 530 316 520 347 502L316 420C294 432 273 439 252 439 232 439 215 433 200 422 184 410 173 394 167 374 157 342 153 308 153 271V0H65Z"/>
</g>
<g id="font_4_104">
<path transform="matrix(.001,0,0,.001,0,0)" d="M66 0V716H154V459C194 506 246 530 309 530 347 530 381 522 409 507 437 492 458 471 470 445 482 418 488 379 488 329V0H400V329C400 373 390 405 371 425 352 445 325 455 291 455 265 455 240 448 217 434 194 420 178 402 168 379 158 356 154 324 154 284V0H66Z"/>
</g>
<g id="font_4_116">
<path transform="matrix(.001,0,0,.001,0,0)" d="M258 79 271 1C245-3 223-6 204-6 172-6 147-1 130 8 112 18 100 31 93 48 85 64 82 99 82 152V450H18V519H82V647L169 700V519H258V450H169V147C169 121 170 105 174 98 177 91 182 85 189 81 196 77 206 75 219 75 229 75 242 76 258 79Z"/>
</g>
<g id="font_4_107">
<path transform="matrix(.001,0,0,.001,0,0)" d="M66 0V716H154V308L362 519H476L278 326 496 0H388L216 265 154 206V0H66Z"/>
</g>
<g id="font_4_48">
<path transform="matrix(.001,0,0,.001,0,0)" d="M42 353C42 437 50 505 68 557 85 609 111 649 145 677 179 705 223 719 275 719 313 719 347 711 376 695 404 679 428 657 447 628 466 599 481 564 492 522 502 480 508 423 508 353 508 269 499 201 482 149 465 97 439 58 405 30 371 2 327-11 275-11 205-11 151 13 112 62 65 121 42 218 42 353ZM132 353C132 235 145 157 173 118 200 79 234 60 274 60 314 60 348 79 376 118 404 157 418 235 418 353 418 471 404 549 376 588 348 626 314 646 274 646 233 646 201 629 177 595 147 551 132 470 132 353Z"/>
</g>
</defs>
<use data-text="A" xlink:href="#font_1_1" transform="matrix(7.9701,0,0,-7.9701,6.6550009,12.82901)"/>
<use data-text="D" xlink:href="#font_1_2" transform="matrix(6.9738,0,0,-6.9738,24.904,11.694)"/>
<use data-text="i" xlink:href="#font_1_7" transform="matrix(6.9738,0,0,-6.9738,29.939084,11.694)"/>
<use data-text="a" xlink:href="#font_1_3" transform="matrix(6.9738,0,0,-6.9738,31.487267,11.694)"/>
<use data-text="g" xlink:href="#font_1_5" transform="matrix(6.9738,0,0,-6.9738,35.3647,11.694)"/>
<use data-text="n" xlink:href="#font_1_10" transform="matrix(6.9738,0,0,-6.9738,39.242136,11.694)"/>
<use data-text="o" xlink:href="#font_1_11" transform="matrix(6.9738,0,0,-6.9738,43.119569,11.694)"/>
<use data-text="s" xlink:href="#font_1_14" transform="matrix(6.9738,0,0,-6.9738,46.997,11.694)"/>
<use data-text="e" xlink:href="#font_1_4" transform="matrix(6.9738,0,0,-6.9738,50.483903,11.694)"/>
<use data-text="s" xlink:href="#font_1_14" transform="matrix(6.9738,0,0,-6.9738,54.361337,11.694)"/>
<use data-text="w" xlink:href="#font_1_16" transform="matrix(6.9738,0,0,-6.9738,59.786954,11.694)"/>
<use data-text="i" xlink:href="#font_1_7" transform="matrix(6.9738,0,0,-6.9738,64.82204,11.694)"/>
<use data-text="t" xlink:href="#font_1_15" transform="matrix(6.9738,0,0,-6.9738,66.370227,11.694)"/>
<use data-text="h" xlink:href="#font_1_6" transform="matrix(6.9738,0,0,-6.9738,68.30894,11.694)"/>
<use data-text="s" xlink:href="#font_1_14" transform="matrix(6.9738,0,0,-6.9738,74.125087,11.694)"/>
<use data-text="m" xlink:href="#font_1_9" transform="matrix(6.9738,0,0,-6.9738,77.611988,11.694)"/>
<use data-text="a" xlink:href="#font_1_3" transform="matrix(6.9738,0,0,-6.9738,83.42116,11.694)"/>
<use data-text="l" xlink:href="#font_1_8" transform="matrix(6.9738,0,0,-6.9738,87.29859,11.694)"/>
<use data-text="l" xlink:href="#font_1_8" transform="matrix(6.9738,0,0,-6.9738,88.84678,11.694)"/>
<use data-text="e" xlink:href="#font_1_4" transform="matrix(6.9738,0,0,-6.9738,90.394969,11.694)"/>
<use data-text="r" xlink:href="#font_1_13" transform="matrix(6.9738,0,0,-6.9738,94.2724,11.694)"/>
<use data-text="s" xlink:href="#font_1_14" transform="matrix(6.9738,0,0,-6.9738,98.53339,11.694)"/>
<use data-text="a" xlink:href="#font_1_3" transform="matrix(6.9738,0,0,-6.9738,102.02029,11.694)"/>
<use data-text="m" xlink:href="#font_1_9" transform="matrix(6.9738,0,0,-6.9738,105.89772,11.694)"/>
<use data-text="p" xlink:href="#font_1_12" transform="matrix(6.9738,0,0,-6.9738,111.706897,11.694)"/>
<use data-text="l" xlink:href="#font_1_8" transform="matrix(6.9738,0,0,-6.9738,115.58433,11.694)"/>
<use data-text="e" xlink:href="#font_1_4" transform="matrix(6.9738,0,0,-6.9738,117.132518,11.694)"/>
<use data-text="s" xlink:href="#font_1_14" transform="matrix(6.9738,0,0,-6.9738,122.94866,11.694)"/>
<use data-text="i" xlink:href="#font_1_7" transform="matrix(6.9738,0,0,-6.9738,126.43556,11.694)"/>
<use data-text="z" xlink:href="#font_1_17" transform="matrix(6.9738,0,0,-6.9738,127.98375,11.694)"/>
<use data-text="e" xlink:href="#font_1_4" transform="matrix(6.9738,0,0,-6.9738,131.36603,11.694)"/>
<use data-text="s" xlink:href="#font_1_14" transform="matrix(6.9738,0,0,-6.9738,135.24346,11.694)"/>
<g clip-path="url(#clip_2)">
<path transform="matrix(.35756,0,0,-.35756,20.687,165.54302)" d="M0 0H427.90766V394.6409H0Z" fill="#ffffff"/>
<path transform="matrix(.35756,0,0,-.35756,20.687,165.54302)" d="M197.3898 306.576C178.345 306.576 159.52033 302.48707 142.19165 294.58638 124.86298 286.68568 109.43088 275.1558 96.94129 260.77824L197.3898 173.52Z" fill="#0072b2"/>
<path transform="matrix(.35756,0,0,-.35756,20.687,165.54302)" stroke-width="1" stroke-linecap="butt" stroke-miterlimit="10" stroke-linejoin="miter" fill="none" stroke="#ffffff" d="M197.3898 306.576C178.345 306.576 159.52033 302.48707 142.19165 294.58638 124.86298 286.68568 109.43088 275.1558 96.94129 260.77824L197.3898 173.52Z"/>
<path transform="matrix(.35756,0,0,-.35756,20.687,165.54302)" d="M96.94129 260.77824C88.26546 250.79091 81.12744 239.5653 75.76312 227.4723 70.398799 215.37932 66.867908 202.55364 65.28711 189.41904L197.3898 173.52Z" fill="#d55e00"/>
<path transform="matrix(.35756,0,0,-.35756,20.687,165.54302)" stroke-width="1" stroke-linecap="butt" stroke-miterlimit="10" stroke-linejoin="miter" fill="none" stroke="#ffffff" d="M96.94129 260.77824C88.26546 250.79091 81.12744 239.5653 75.76312 227.4723 70.398799 215.37932 66.867908 202.55364 65.28711 189.41904L197.3898 173.52Z"/>
<path transform="matrix(.35756,0,0,-.35756,20.687,165.54302)" d="M65.28711 189.41904C63.815694 177.19327 64.04857 164.8222 65.979068 152.66048 67.90956 140.49875 71.51905 128.66368 76.70406 117.49453L197.3898 173.52Z" fill="#009e73"/>
<path transform="matrix(.35756,0,0,-.35756,20.687,165.54302)" stroke-width="1" stroke-linecap="butt" stroke-miterlimit="10" stroke-linejoin="miter" fill="none" stroke="#ffffff" d="M65.28711 189.41904C63.815694 177.19327 64.04857 164.8222 65.979068 152.66048 67.90956 140.49875 71.51905 128.66368 76.70406 117.49453L197.3898 173.52Z"/>
<path transform="matrix(.35756,0,0,-.35756,20.687,165.54302)" d="M76.70406 117.49453C81.76066 106.602 88.26872 96.444019 96.05075 87.29763 103.83278 78.151248 112.81737 70.100368 122.759479 63.364587L197.3898 173.52Z" fill="#cc79a7"/>
<path transform="matrix(.35756,0,0,-.35756,20.687,165.54302)" stroke-width="1" stroke-linecap="butt" stroke-miterlimit="10" stroke-linejoin="miter" fill="none" stroke="#ffffff" d="M76.70406 117.49453C81.76066 106.602 88.26872 96.444019 96.05075 87.29763 103.83278 78.151248 112.81737 70.100368 122.759479 63.364587L197.3898 173.52Z"/>
<path transform="matrix(.35756,0,0,-.35756,20.687,165.54302)" d="M122.759479 63.364587C131.1878 57.654394 140.24372 52.930334 149.7493 49.285215 159.25489 45.640096 169.14749 43.09794 179.23278 41.70869L197.3898 173.52Z" fill="#56b4e9"/>
<path transform="matrix(.35756,0,0,-.35756,20.687,165.54302)" stroke-width="1" stroke-linecap="butt" stroke-miterlimit="10" stroke-linejoin="miter" fill="none" stroke="#ffffff" d="M122.759479 63.364587C131.1878 57.654394 140.24372 52.930334 149.7493 49.285215 159.25489 45.640096 169.14749 43.09794 179.23278 41.70869L197.3898 173.52Z"/>
<path transform="matrix(.35756,0,0,-.35756,20.687,165.54302)" d="M179.23278 41.70869C187.96094 40.506387 196.78697 40.173978 205.58084 40.716363 214.37471 41.25875 223.093 42.673257 231.60726 44.939035L197.3898 173.52Z" fill="#e69f00"/>
<path transform="matrix(.35756,0,0,-.35756,20.687,165.54302)" stroke-width="1" stroke-linecap="butt" stroke-miterlimit="10" stroke-linejoin="miter" fill="none" stroke="#ffffff" d="M179.23278 41.70869C187.96094 40.506387 196.78697 40.173978 205.58084 40.716363 214.37471 41.25875 223.093 42.673257 231.60726 44.939035L197.3898 173.52Z"/>
<path transform="matrix(.35756,0,0,-.35756,20.687,165.54302)" d="M231.60726 44.939035C240.1215 47.204816 248.3897 50.310686 256.29 54.210886 264.1903 58.11108 271.68373 62.786359 278.65983 68.16782L197.3898 173.52Z" fill="#f0e442"/>
<path transform="matrix(.35756,0,0,-.35756,20.687,165.54302)" stroke-width="1" stroke-linecap="butt" stroke-miterlimit="10" stroke-linejoin="miter" fill="none" stroke="#ffffff" d="M231.60726 44.939035C240.1215 47.204816 248.3897 50.310686 256.29 54.210886 264.1903 58.11108 271.68373 62.786359 278.65983 68.16782L197.3898 173.52Z"/>
<path transform="matrix(.35756,0,0,-.35756,20.687,165.54302)" d="M278.65983 68.16782C284.91328 72.991809 290.7248 78.36301 296.02555 84.21777 301.3263 90.07255 306.09529 96.38767 310.2759 103.0883L197.3898 173.52Z" fill="#999999"/>
<path transform="matrix(.35756,0,0,-.35756,20.687,165.54302)" stroke-width="1" stroke-linecap="butt" stroke-miterlimit="10" stroke-linejoin="miter" fill="none" stroke="#ffffff" d="M278.65983 68.16782C284.91328 72.991809 290.7248 78.36301 296.02555 84.21777 301.3263 90.07255 306.09529 96.38767 310.2759 103.0883L197.3898 173.52Z"/>
<path transform="matrix(.35756,0,0,-.35756,20.687,165.54302)" d="M310.2759 103.0883C314.2151 109.4019 317.61766 116.03485 320.44779 122.91735 323.27796 129.79985 325.52574 136.90766 327.16746 144.16599L197.3898 173.52Z" fill="#44aa99"/>
<path transform="matrix(.35756,0,0,-.35756,20.687,165.54302)" stroke-width="1" stroke-linecap="butt" stroke-miterlimit="10" stroke-linejoin="miter" fill="none" stroke="#ffffff" d="M310.2759 103.0883C314.2151 109.4019 317.61766 116.03485 320.44779 122.91735 323.27796 129.79985 325.52574 136.90766 327.16746 144.16599L197.3898 173.52Z"/>
<path transform="matrix(.35756,0,0,-.35756,20.687,165.54302)" d="M327.16746 144.16599C328.7421 151.12772 329.75404 158.20488 330.19343 165.32895 330.6328 172.453 330.49827 179.60089 329.79109 186.70337L197.3898 173.52Z" fill="#cc6677"/>
<path transform="matrix(.35756,0,0,-.35756,20.687,165.54302)" stroke-width="1" stroke-linecap="butt" stroke-miterlimit="10" stroke-linejoin="miter" fill="none" stroke="#ffffff" d="M327.16746 144.16599C328.7421 151.12772 329.75404 158.20488 330.19343 165.32895 330.6328 172.453 330.49827 179.60089 329.79109 186.70337L197.3898 173.52Z"/>
<path transform="matrix(.35756,0,0,-.35756,20.687,165.54302)" d="M329.79109 186.70337C329.09895 193.65457 327.86045 200.54048 326.0871 207.29723 324.31379 214.05397 322.01109 220.66057 319.2004 227.05576L197.3898 173.52Z" fill="#88ccee"/>
<path transform="matrix(.35756,0,0,-.35756,20.687,165.54302)" stroke-width="1" stroke-linecap="butt" stroke-miterlimit="10" stroke-linejoin="miter" fill="none" stroke="#ffffff" d="M329.79109 186.70337C329.09895 193.65457 327.86045 200.54048 326.0871 207.29723 324.31379 214.05397 322.01109 220.66057 319.2004 227.05576L197.3898 173.52Z"/>
<path transform="matrix(.35756,0,0,-.35756,20.687,165.54302)" d="M319.2004 227.05576C316.6955 232.7552 313.79365 238.27182 310.5163 243.56496 307.23893 248.85808 303.59413 253.91466 299.6087 258.69743L197.3898 173.52Z" fill="#66cc66"/>
<path transform="matrix(.35756,0,0,-.35756,20.687,165.54302)" stroke-width="1" stroke-linecap="butt" stroke-miterlimit="10" stroke-linejoin="miter" fill="none" stroke="#ffffff" d="M319.2004 227.05576C316.6955 232.7552 313.79365 238.27182 310.5163 243.56496 307.23893 248.85808 303.59413 253.91466 299.6087 258.69743L197.3898 173.52Z"/>
<path transform="matrix(.35756,0,0,-.35756,20.687,165.54302)" d="M299.6087 258.69743C295.6233 263.4802 291.30714 267.97737 286.69203 272.15577 282.0769 276.33418 277.17424 280.1835 272.0201 283.6754L197.3898 173.52Z" fill="#aa4499"/>
<path transform="matrix(.35756,0,0,-.35756,20.687,165.54302)" stroke-width="1" stroke-linecap="butt" stroke-miterlimit="10" stroke-linejoin="miter" fill="none" stroke="#ffffff" d="M299.6087 258.69743C295.6233 263.4802 291.30714 267.97737 286.69203 272.15577 282.0769 276.33418 277.17424 280.1835 272.0201 283.6754L197.3898 173.52Z"/>
<path transform="matrix(.35756,0,0,-.35756,20.687,165.54302)" d="M272.0201 283.6754C268.12379 286.3152 264.09016 288.74635 259.93623 290.95869 255.78226 293.17103 251.51387 295.1614 247.149 296.92146L197.3898 173.52Z" fill="#ddcc77"/>
<path transform="matrix(.35756,0,0,-.35756,20.687,165.54302)" stroke-width="1" stroke-linecap="butt" stroke-miterlimit="10" stroke-linejoin="miter" fill="none" stroke="#ffffff" d="M272.0201 283.6754C268.12379 286.3152 264.09016 288.74635 259.93623 290.95869 255.78226 293.17103 251.51387 295.1614 247.149 296.92146L197.3898 173.52Z"/>
<path transform="matrix(.35756,0,0,-.35756,20.687,165.54302)" d="M247.149 296.92146C243.34758 298.4543 239.47734 299.8107 235.55069 300.98625 231.62404 302.1618 227.64517 303.1553 223.6268 303.96354L197.3898 173.52Z" fill="#cc9966"/>
<path transform="matrix(.35756,0,0,-.35756,20.687,165.54302)" stroke-width="1" stroke-linecap="butt" stroke-miterlimit="10" stroke-linejoin="miter" fill="none" stroke="#ffffff" d="M247.149 296.92146C243.34758 298.4543 239.47734 299.8107 235.55069 300.98625 231.62404 302.1618 227.64517 303.1553 223.6268 303.96354L197.3898 173.52Z"/>
<path transform="matrix(.35756,0,0,-.35756,20.687,165.54302)" d="M223.6268 303.96354C220.94817 304.50233 218.25356 304.95848 215.54682 305.3313 212.84009 305.70417 210.12252 305.99357 207.39797 306.19908L197.3898 173.52Z" fill="#6699cc"/>
<path transform="matrix(.35756,0,0,-.35756,20.687,165.54302)" stroke-width="1" stroke-linecap="butt" stroke-miterlimit="10" stroke-linejoin="miter" fill="none" stroke="#ffffff" d="M223.6268 303.96354C220.94817 304.50233 218.25356 304.95848 215.54682 305.3313 212.84009 305.70417 210.12252 305.99357 207.39797 306.19908L197.3898 173.52Z"/>
<path transform="matrix(.35756,0,0,-.35756,20.687,165.54302)" d="M207.39797 306.19908C205.8844 306.31324 204.369 306.4015 202.85242 306.4638 201.33585 306.52613 199.81832 306.5625 198.30049 306.57289L197.3898 173.52Z" fill="#ee99aa"/>
<path transform="matrix(.35756,0,0,-.35756,20.687,165.54302)" stroke-width="1" stroke-linecap="butt" stroke-miterlimit="10" stroke-linejoin="miter" fill="none" stroke="#ffffff" d="M207.39797 306.19908C205.8844 306.31324 204.369 306.4015 202.85242 306.4638 201.33585 306.52613 199.81832 306.5625 198.30049 306.57289L197.3898 173.52Z"/>
<path transform="matrix(.35756,0,0,-.35756,20.687,165.54302)" d="M198.30049 306.57289C198.14871 306.5739 197.99694 306.5747 197.84516 306.57524 197.69338 306.57575 197.54158 306.576 197.3898 306.576V173.52Z" fill="#55aa55"/>
<path transform="matrix(.35756,0,0,-.35756,20.687,165.54302)" stroke-width="1" stroke-linecap="butt" stroke-miterlimit="10" stroke-linejoin="miter" fill="none" stroke="#ffffff" d="M198.30049 306.57289C198.14871 306.5739 197.99694 306.5747 197.84516 306.57524 197.69338 306.57575 197.54158 306.576 197.3898 306.576V173.52Z"/>
<g clip-path="url(#clip_3)">
<path transform="matrix(.35756,0,0,-.35756,20.687,165.54302)" d="M197.3898 100.3392C216.79756 100.3392 235.41307 108.04999 249.13643 121.77336 262.8598 135.49674 270.5706 154.11223 270.5706 173.52 270.5706 192.92778 262.8598 211.54328 249.13643 225.26665 235.41307 238.99 216.79756 246.7008 197.3898 246.7008 177.98203 246.7008 159.36652 238.99 145.64316 225.26665 131.91979 211.54328 124.20899 192.92778 124.20899 173.52 124.20899 154.11223 131.91979 135.49674 145.64316 121.77336 159.36652 108.04999 177.98203 100.3392 197.3898 100.3392Z" fill="#ffffff"/>
<path transform="matrix(.35756,0,0,-.35756,20.687,165.54302)" stroke-width="1" stroke-linecap="butt" stroke-miterlimit="10" stroke-linejoin="miter" fill="none" stroke="#ffffff" d="M197.3898 100.3392C216.79756 100.3392 235.41307 108.04999 249.13643 121.77336 262.8598 135.49674 270.5706 154.11223 270.5706 173.52 270.5706 192.92778 262.8598 211.54328 249.13643 225.26665 235.41307 238.99 216.79756 246.7008 197.3898 246.7008 177.98203 246.7008 159.36652 238.99 145.64316 225.26665 131.91979 211.54328 124.20899 192.92778 124.20899 173.52 124.20899 154.11223 131.91979 135.49674 145.64316 121.77336 159.36652 108.04999 177.98203 100.3392 197.3898 100.3392Z"/>
</g>
<use data-text="S" xlink:href="#font_4_83" transform="matrix(1.7800007,3.9040848,3.9040848,-1.7800007,63.000169,47.281908)" fill="#262626"/>
<use data-text="U" xlink:href="#font_4_85" transform="matrix(1.7800007,3.9040848,3.9040848,-1.7800007,64.18743,49.88593)" fill="#262626"/>
<use data-text="D" xlink:href="#font_4_68" transform="matrix(1.7800007,3.9040848,3.9040848,-1.7800007,65.47259,52.70468)" fill="#262626"/>
<use data-text="1" xlink:href="#font_4_49" transform="matrix(4.29072,0,0,-4.29072,72.88482,72.14183)" fill="#262626"/>
<use data-text="2" xlink:href="#font_4_50" transform="matrix(4.29072,0,0,-4.29072,75.27046,72.14183)" fill="#262626"/>
<use data-text="5" xlink:href="#font_4_53" transform="matrix(4.29072,0,0,-4.29072,77.6561,72.14183)" fill="#262626"/>
<use data-text="H" xlink:href="#font_4_72" transform="matrix(3.922153,1.7398257,1.7398257,-3.922153,23.628428,73.23043)" fill="#262626"/>
<use data-text="C" xlink:href="#font_4_67" transform="matrix(3.922153,1.7398257,1.7398257,-3.922153,26.460223,74.48659)" fill="#262626"/>
<use data-text=" " xlink:href="#font_4_32" transform="matrix(3.922153,1.7398257,1.7398257,-3.922153,29.292017,75.74274)" fill="#262626"/>
<use data-text="S" xlink:href="#font_4_83" transform="matrix(3.922153,1.7398257,1.7398257,-3.922153,30.382376,76.22641)" fill="#262626"/>
<use data-text="i" xlink:href="#font_4_105" transform="matrix(3.922153,1.7398257,1.7398257,-3.922153,32.99845,77.38687)" fill="#262626"/>
<use data-text="b" xlink:href="#font_4_98" transform="matrix(3.922153,1.7398257,1.7398257,-3.922153,33.86917,77.77312)" fill="#262626"/>
<use data-text="l" xlink:href="#font_4_108" transform="matrix(3.922153,1.7398257,1.7398257,-3.922153,36.04989,78.74046)" fill="#262626"/>
<use data-text="i" xlink:href="#font_4_105" transform="matrix(3.922153,1.7398257,1.7398257,-3.922153,36.92061,79.1267)" fill="#262626"/>
<use data-text="n" xlink:href="#font_4_110" transform="matrix(3.922153,1.7398257,1.7398257,-3.922153,37.791326,79.51294)" fill="#262626"/>
<use data-text="g" xlink:href="#font_4_103" transform="matrix(3.922153,1.7398257,1.7398257,-3.922153,39.972043,80.480289)" fill="#262626"/>
<use data-text="8" xlink:href="#font_4_56" transform="matrix(4.29072,0,0,-4.29072,56.263479,90.1398)" fill="#262626"/>
<use data-text="7" xlink:href="#font_4_55" transform="matrix(4.29072,0,0,-4.29072,58.649118,90.1398)" fill="#262626"/>
<use data-text="C" xlink:href="#font_4_67" transform="matrix(4.237664,-.6726668,-.6726668,-4.237664,30.258622,116.196689)" fill="#262626"/>
<use data-text="H" xlink:href="#font_4_72" transform="matrix(4.237664,-.6726668,-.6726668,-4.237664,33.318216,115.71102)" fill="#262626"/>
<use data-text="R" xlink:href="#font_4_82" transform="matrix(4.237664,-.6726668,-.6726668,-4.237664,36.377809,115.22536)" fill="#262626"/>
<use data-text="8" xlink:href="#font_4_56" transform="matrix(4.29072,0,0,-4.29072,53.639688,110.20209)" fill="#262626"/>
<use data-text="1" xlink:href="#font_4_49" transform="matrix(4.29072,0,0,-4.29072,56.025327,110.20209)" fill="#262626"/>
<use data-text="S" xlink:href="#font_4_83" transform="matrix(3.2679284,-2.7804538,-2.7804538,-3.2679284,31.204846,156.48041)" fill="#262626"/>
<use data-text="C" xlink:href="#font_4_67" transform="matrix(3.2679284,-2.7804538,-2.7804538,-3.2679284,33.384553,154.62584)" fill="#262626"/>
<use data-text="H" xlink:href="#font_4_72" transform="matrix(3.2679284,-2.7804538,-2.7804538,-3.2679284,35.744,152.61837)" fill="#262626"/>
<use data-text="Z" xlink:href="#font_4_90" transform="matrix(3.2679284,-2.7804538,-2.7804538,-3.2679284,38.103445,150.61087)" fill="#262626"/>
<use data-text=" " xlink:href="#font_4_32" transform="matrix(3.2679284,-2.7804538,-2.7804538,-3.2679284,40.100149,148.91202)" fill="#262626"/>
<use data-text="S" xlink:href="#font_4_83" transform="matrix(3.2679284,-2.7804538,-2.7804538,-3.2679284,41.00863,148.13906)" fill="#262626"/>
<use data-text="i" xlink:href="#font_4_105" transform="matrix(3.2679284,-2.7804538,-2.7804538,-3.2679284,43.18834,146.28449)" fill="#262626"/>
<use data-text="b" xlink:href="#font_4_98" transform="matrix(3.2679284,-2.7804538,-2.7804538,-3.2679284,43.91382,145.66722)" fill="#262626"/>
<use data-text="l" xlink:href="#font_4_108" transform="matrix(3.2679284,-2.7804538,-2.7804538,-3.2679284,45.73079,144.12129)" fill="#262626"/>
<use data-text="i" xlink:href="#font_4_105" transform="matrix(3.2679284,-2.7804538,-2.7804538,-3.2679284,46.45627,143.50403)" fill="#262626"/>
<use data-text="n" xlink:href="#font_4_110" transform="matrix(3.2679284,-2.7804538,-2.7804538,-3.2679284,47.181749,142.88677)" fill="#262626"/>
<use data-text="g" xlink:href="#font_4_103" transform="matrix(3.2679284,-2.7804538,-2.7804538,-3.2679284,48.99872,141.34084)" fill="#262626"/>
<use data-text="7" xlink:href="#font_4_55" transform="matrix(4.29072,0,0,-4.29072,61.70401,127.73045)" fill="#262626"/>
<use data-text="9" xlink:href="#font_4_57" transform="matrix(4.29072,0,0,-4.29072,64.08965,127.73045)" fill="#262626"/>
<use data-text="C" xlink:href="#font_4_67" transform="matrix(1.5362856,-4.006258,-4.006258,-1.5362856,68.57121,161.69977)" fill="#262626"/>
<use data-text="P" xlink:href="#font_4_80" transform="matrix(1.5362856,-4.006258,-4.006258,-1.5362856,69.68041,158.80725)" fill="#262626"/>
<use data-text="S" xlink:href="#font_4_83" transform="matrix(1.5362856,-4.006258,-4.006258,-1.5362856,70.70512,156.13507)" fill="#262626"/>
<use data-text="6" xlink:href="#font_4_54" transform="matrix(4.29072,0,0,-4.29072,76.104358,137.92424)" fill="#262626"/>
<use data-text="7" xlink:href="#font_4_55" transform="matrix(4.29072,0,0,-4.29072,78.49,137.92424)" fill="#262626"/>
<use data-text="A" xlink:href="#font_4_65" transform="matrix(.2641405,4.282582,4.282582,-.2641405,95.34053,155.92217)" fill="#262626"/>
<use data-text="N" xlink:href="#font_4_78" transform="matrix(.2641405,4.282582,4.282582,-.2641405,95.51671,158.77864)" fill="#262626"/>
<use data-text="5" xlink:href="#font_4_53" transform="matrix(4.29072,0,0,-4.29072,91.07669,140.22216)" fill="#262626"/>
<use data-text="8" xlink:href="#font_4_56" transform="matrix(4.29072,0,0,-4.29072,93.46233,140.22216)" fill="#262626"/>
<use data-text="W" xlink:href="#font_4_87" transform="matrix(1.8993828,3.8474179,3.8474179,-1.8993828,115.19856,151.78563)" fill="#262626"/>
<use data-text="R" xlink:href="#font_4_82" transform="matrix(1.8993828,3.8474179,3.8474179,-1.8993828,116.99158,155.41759)" fill="#262626"/>
<use data-text="5" xlink:href="#font_4_53" transform="matrix(4.29072,0,0,-4.29072,104.67537,136.60332)" fill="#262626"/>
<use data-text="8" xlink:href="#font_4_56" transform="matrix(4.29072,0,0,-4.29072,107.06101,136.60332)" fill="#262626"/>
<use data-text="A" xlink:href="#font_4_65" transform="matrix(3.1807543,2.879771,2.879771,-3.1807543,130.63443,140.90108)" fill="#262626"/>
<use data-text="R" xlink:href="#font_4_82" transform="matrix(3.1807543,2.879771,2.879771,-3.1807543,132.756,142.82189)" fill="#262626"/>
<use data-text="M" xlink:href="#font_4_77" transform="matrix(3.1807543,2.879771,2.879771,-3.1807543,135.05249,144.90108)" fill="#262626"/>
<use data-text="S" xlink:href="#font_4_83" transform="matrix(3.1807543,2.879771,2.879771,-3.1807543,137.70207,147.29993)" fill="#262626"/>
<use data-text="5" xlink:href="#font_4_53" transform="matrix(4.29072,0,0,-4.29072,115.33125,128.55637)" fill="#262626"/>
<use data-text="2" xlink:href="#font_4_50" transform="matrix(4.29072,0,0,-4.29072,117.716899,128.55637)" fill="#262626"/>
<use data-text="P" xlink:href="#font_4_80" transform="matrix(3.9683097,1.6318077,1.6318077,-3.9683097,139.99147,126.24393)" fill="#262626"/>
<use data-text="T" xlink:href="#font_4_84" transform="matrix(3.9683097,1.6318077,1.6318077,-3.9683097,142.63834,127.332347)" fill="#262626"/>
<use data-text="S" xlink:href="#font_4_83" transform="matrix(3.9683097,1.6318077,1.6318077,-3.9683097,145.06298,128.32938)" fill="#262626"/>
<use data-text="D" xlink:href="#font_4_68" transform="matrix(3.9683097,1.6318077,1.6318077,-3.9683097,147.70984,129.41779)" fill="#262626"/>
<use data-text="4" xlink:href="#font_4_52" transform="matrix(4.29072,0,0,-4.29072,121.88057,118.178318)" fill="#262626"/>
<use data-text="9" xlink:href="#font_4_57" transform="matrix(4.29072,0,0,-4.29072,124.26621,118.178318)" fill="#262626"/>
<use data-text="P" xlink:href="#font_4_80" transform="matrix(4.282582,.26414085,.26414085,-4.282582,143.55213,109.78783)" fill="#262626"/>
<use data-text="a" xlink:href="#font_4_97" transform="matrix(4.282582,.26414085,.26414085,-4.282582,146.4086,109.96401)" fill="#262626"/>
<use data-text="n" xlink:href="#font_4_110" transform="matrix(4.282582,.26414085,.26414085,-4.282582,148.78972,110.11087)" fill="#262626"/>
<use data-text="i" xlink:href="#font_4_105" transform="matrix(4.282582,.26414085,.26414085,-4.282582,151.17084,110.25774)" fill="#262626"/>
<use data-text="c" xlink:href="#font_4_99" transform="matrix(4.282582,.26414085,.26414085,-4.282582,152.12157,110.316379)" fill="#262626"/>
<use data-text=" " xlink:href="#font_4_32" transform="matrix(4.282582,.26414085,.26414085,-4.282582,154.26287,110.44844)" fill="#262626"/>
<use data-text="E" xlink:href="#font_4_69" transform="matrix(4.282582,.26414085,.26414085,-4.282582,155.45342,110.52187)" fill="#262626"/>
<use data-text="p" xlink:href="#font_4_112" transform="matrix(4.282582,.26414085,.26414085,-4.282582,158.3099,110.69806)" fill="#262626"/>
<use data-text="i" xlink:href="#font_4_105" transform="matrix(4.282582,.26414085,.26414085,-4.282582,160.69103,110.84492)" fill="#262626"/>
<use data-text="s" xlink:href="#font_4_115" transform="matrix(4.282582,.26414085,.26414085,-4.282582,161.64176,110.90356)" fill="#262626"/>
<use data-text="o" xlink:href="#font_4_111" transform="matrix(4.282582,.26414085,.26414085,-4.282582,163.78305,111.03563)" fill="#262626"/>
<use data-text="d" xlink:href="#font_4_100" transform="matrix(4.282582,.26414085,.26414085,-4.282582,166.16416,111.18249)" fill="#262626"/>
<use data-text="e" xlink:href="#font_4_101" transform="matrix(4.282582,.26414085,.26414085,-4.282582,168.54528,111.32935)" fill="#262626"/>
<use data-text="4" xlink:href="#font_4_52" transform="matrix(4.29072,0,0,-4.29072,124.49405,106.804798)" fill="#262626"/>
<use data-text="7" xlink:href="#font_4_55" transform="matrix(4.29072,0,0,-4.29072,126.87969,106.804798)" fill="#262626"/>
<use data-text="B" xlink:href="#font_4_66" transform="matrix(4.1501638,-1.0892302,-1.0892302,-4.1501638,142.66446,89.38729)" fill="#262626"/>
<use data-text="P" xlink:href="#font_4_80" transform="matrix(4.1501638,-1.0892302,-1.0892302,-4.1501638,145.43262,88.660778)" fill="#262626"/>
<use data-text="D" xlink:href="#font_4_68" transform="matrix(4.1501638,-1.0892302,-1.0892302,-4.1501638,148.20078,87.93426)" fill="#262626"/>
<use data-text="4" xlink:href="#font_4_52" transform="matrix(4.29072,0,0,-4.29072,123.39287,95.550159)" fill="#262626"/>
<use data-text="6" xlink:href="#font_4_54" transform="matrix(4.29072,0,0,-4.29072,125.77851,95.550159)" fill="#262626"/>
<use data-text="F" xlink:href="#font_4_70" transform="matrix(3.6480439,-2.2587729,-2.2587729,-3.6480439,137.37778,75.22265)" fill="#262626"/>
<use data-text="E" xlink:href="#font_4_69" transform="matrix(3.6480439,-2.2587729,-2.2587729,-3.6480439,139.60674,73.84254)" fill="#262626"/>
<use data-text="P" xlink:href="#font_4_80" transform="matrix(3.6480439,-2.2587729,-2.2587729,-3.6480439,142.03998,72.33594)" fill="#262626"/>
<use data-text="4" xlink:href="#font_4_52" transform="matrix(4.29072,0,0,-4.29072,119.21724,85.82424)" fill="#262626"/>
<use data-text="1" xlink:href="#font_4_49" transform="matrix(4.29072,0,0,-4.29072,121.60288,85.82424)" fill="#262626"/>
<use data-text="A" xlink:href="#font_4_65" transform="matrix(2.8797715,-3.1807543,-3.1807543,-2.8797715,128.66759,64.130489)" fill="#262626"/>
<use data-text="U" xlink:href="#font_4_85" transform="matrix(2.8797715,-3.1807543,-3.1807543,-2.8797715,130.5884,62.008924)" fill="#262626"/>
<use data-text="D" xlink:href="#font_4_68" transform="matrix(2.8797715,-3.1807543,-3.1807543,-2.8797715,132.66759,59.712419)" fill="#262626"/>
<use data-text="4" xlink:href="#font_4_52" transform="matrix(4.29072,0,0,-4.29072,112.82828,78.15705)" fill="#262626"/>
<use data-text="1" xlink:href="#font_4_49" transform="matrix(4.29072,0,0,-4.29072,115.21392,78.15705)" fill="#262626"/>
<use data-text="S" xlink:href="#font_4_83" transform="matrix(2.016964,-3.787101,-3.787101,-2.016964,118.57832,56.906869)" fill="#262626"/>
<use data-text="A" xlink:href="#font_4_65" transform="matrix(2.016964,-3.787101,-3.787101,-2.016964,119.92364,54.38087)" fill="#262626"/>
<use data-text="D" xlink:href="#font_4_68" transform="matrix(2.016964,-3.787101,-3.787101,-2.016964,121.26895,51.854875)" fill="#262626"/>
<use data-text="3" xlink:href="#font_4_51" transform="matrix(4.29072,0,0,-4.29072,105.65317,73.114658)" fill="#262626"/>
<use data-text="1" xlink:href="#font_4_49" transform="matrix(4.29072,0,0,-4.29072,108.03881,73.114658)" fill="#262626"/>
<use data-text="O" xlink:href="#font_4_79" transform="matrix(1.2305927,-4.110465,-4.110465,-1.2305927,109.21867,53.11953)" fill="#262626"/>
<use data-text="C" xlink:href="#font_4_67" transform="matrix(1.2305927,-4.110465,-4.110465,-1.2305927,110.17607,49.92159)" fill="#262626"/>
<use data-text="D" xlink:href="#font_4_68" transform="matrix(1.2305927,-4.110465,-4.110465,-1.2305927,111.06456,46.95383)" fill="#262626"/>
<use data-text="2" xlink:href="#font_4_50" transform="matrix(4.29072,0,0,-4.29072,99.11371,70.42557)" fill="#262626"/>
<use data-text="7" xlink:href="#font_4_55" transform="matrix(4.29072,0,0,-4.29072,101.49935,70.42557)" fill="#262626"/>
<use data-text="A" xlink:href="#font_4_65" transform="matrix(.58551827,-4.2505819,-4.2505819,-.58551827,101.45119,51.532197)" fill="#262626"/>
<use data-text="g" xlink:href="#font_4_103" transform="matrix(.58551827,-4.2505819,-4.2505819,-.58551827,101.84173,48.69706)" fill="#262626"/>
<use data-text="o" xlink:href="#font_4_111" transform="matrix(.58551827,-4.2505819,-4.2505819,-.58551827,102.167278,46.333734)" fill="#262626"/>
<use data-text="r" xlink:href="#font_4_114" transform="matrix(.58551827,-4.2505819,-4.2505819,-.58551827,102.49282,43.97041)" fill="#262626"/>
<use data-text="a" xlink:href="#font_4_97" transform="matrix(.58551827,-4.2505819,-4.2505819,-.58551827,102.687808,42.554967)" fill="#262626"/>
<use data-text="p" xlink:href="#font_4_112" transform="matrix(.58551827,-4.2505819,-4.2505819,-.58551827,103.01335,40.191644)" fill="#262626"/>
<use data-text="h" xlink:href="#font_4_104" transform="matrix(.58551827,-4.2505819,-4.2505819,-.58551827,103.3389,37.828317)" fill="#262626"/>
<use data-text="o" xlink:href="#font_4_111" transform="matrix(.58551827,-4.2505819,-4.2505819,-.58551827,103.664447,35.464998)" fill="#262626"/>
<use data-text="b" xlink:href="#font_4_98" transform="matrix(.58551827,-4.2505819,-4.2505819,-.58551827,103.99,33.10167)" fill="#262626"/>
<use data-text="i" xlink:href="#font_4_105" transform="matrix(.58551827,-4.2505819,-4.2505819,-.58551827,104.315547,30.738347)" fill="#262626"/>
<use data-text="a" xlink:href="#font_4_97" transform="matrix(.58551827,-4.2505819,-4.2505819,-.58551827,104.445529,29.794718)" fill="#262626"/>
<use data-text="1" xlink:href="#font_4_49" transform="matrix(4.29072,0,0,-4.29072,93.74927,69.26036)" fill="#262626"/>
<use data-text="8" xlink:href="#font_4_56" transform="matrix(4.29072,0,0,-4.29072,96.13491,69.26036)" fill="#262626"/>
<use data-text="S" xlink:href="#font_4_83" transform="matrix(.17615596,-4.2871029,-4.2871029,-.17615596,96.48442,51.17517)" fill="#262626"/>
<use data-text="t" xlink:href="#font_4_116" transform="matrix(.17615596,-4.2871029,-4.2871029,-.17615596,96.60191,48.315675)" fill="#262626"/>
<use data-text="r" xlink:href="#font_4_114" transform="matrix(.17615596,-4.2871029,-4.2871029,-.17615596,96.65089,47.12386)" fill="#262626"/>
<use data-text="o" xlink:href="#font_4_111" transform="matrix(.17615596,-4.2871029,-4.2871029,-.17615596,96.70955,45.696256)" fill="#262626"/>
<use data-text="k" xlink:href="#font_4_107" transform="matrix(.17615596,-4.2871029,-4.2871029,-.17615596,96.80749,43.312623)" fill="#262626"/>
<use data-text="e" xlink:href="#font_4_101" transform="matrix(.17615596,-4.2871029,-4.2871029,-.17615596,96.89557,41.16907)" fill="#262626"/>
<use data-text="1" xlink:href="#font_4_49" transform="matrix(4.29072,0,0,-4.29072,90.34502,68.95665)" fill="#262626"/>
<use data-text="0" xlink:href="#font_4_48" transform="matrix(4.29072,0,0,-4.29072,92.73066,68.95665)" fill="#262626"/>
<use data-text="S" xlink:href="#font_4_83" transform="matrix(.014684051,-4.290695,-4.290695,-.014684051,89.76001,45.930253)" fill="#262626"/>
<use data-text="E" xlink:href="#font_4_69" transform="matrix(.014684051,-4.290695,-4.290695,-.014684051,89.769809,43.06836)" fill="#262626"/>
<use data-text="A" xlink:href="#font_4_65" transform="matrix(.014684051,-4.290695,-4.290695,-.014684051,89.7796,40.206464)" fill="#262626"/>
<use data-text="D" xlink:href="#font_4_68" transform="matrix(.014684051,-4.290695,-4.290695,-.014684051,89.78939,37.34457)" fill="#262626"/>
<use data-text="1" xlink:href="#font_4_49" transform="matrix(4.29072,0,0,-4.29072,90.19501,68.92678)" fill="#262626"/>
</g>
<path transform="matrix(1,0,0,-1,29.156,369.95)" stroke-width=".3985" stroke-linecap="butt" stroke-miterlimit="10" stroke-linejoin="miter" fill="none" stroke="#000000" d=""/>
<path transform="matrix(1,0,0,-1,29.156,369.95)" stroke-width=".3985" stroke-linecap="butt" stroke-miterlimit="10" stroke-linejoin="miter" fill="none" stroke="#000000" d="M60.95152 317.60545 60.37283 319.63114"/>
<path transform="matrix(1,0,0,-1,29.156,369.95)" stroke-linecap="butt" stroke-miterlimit="10" stroke-linejoin="miter" fill="none" stroke="#ffffff" d="M59.35593 285.5148V285.5148 285.5148 285.5148Z"/>
</svg>
